M48
; DRILL file {KiCad 9.0.7} date 2026-04-18T10:46:11-0300
; FORMAT={-:-/ absolute / metric / decimal}
; #@! TF.CreationDate,2026-04-18T10:46:11-03:00
; #@! TF.GenerationSoftware,Kicad,Pcbnew,9.0.7
; #@! TF.FileFunction,Plated,1,4,PTH
FMAT,2
METRIC
; #@! TA.AperFunction,Plated,PTH,ComponentDrill
T1C0.200
; #@! TA.AperFunction,Plated,PTH,ViaDrill
T2C0.300
; #@! TA.AperFunction,Plated,PTH,ComponentDrill
T3C0.700
; #@! TA.AperFunction,Plated,PTH,ComponentDrill
T4C0.762
; #@! TA.AperFunction,Plated,PTH,ComponentDrill
T5C1.000
; #@! TA.AperFunction,Plated,PTH,ViaDrill
T6C3.200
%
G90
G05
T1
X151.7Y-73.9
X151.7Y-75.3
X152.4Y-73.2
X152.4Y-74.6
X152.4Y-76.0
X153.1Y-73.9
X153.1Y-75.3
X153.8Y-73.2
X153.8Y-74.6
X153.8Y-76.0
X154.5Y-73.9
X154.5Y-75.3
T2
X110.05Y-127.64
X110.1Y-113.75
X110.11Y-103.89
X110.12Y-115.98
X110.12Y-123.04
X110.13Y-106.12
X110.15Y-74.65
X110.15Y-77.06
X110.16Y-84.41
X110.16Y-94.13
X110.18Y-86.64
X110.18Y-96.36
X113.4Y-123.04
X113.42Y-120.71
X115.66Y-128.8
X115.73Y-124.2
X115.84Y-98.81
X115.9Y-118.44
X117.34Y-72.63
X117.54Y-84.51
X118.21Y-82.81
X118.46Y-73.555
X122.06Y-80.82
X122.33Y-133.49
X123.33Y-118.4
X124.17Y-109.55
X124.9Y-104.49
X124.97Y-127.82
X125.77Y-118.39
X125.79Y-116.04
X126.1Y-109.58
X126.66Y-133.53
X126.7Y-80.8
X126.72Y-97.75
X126.75Y-96.34
X128.0Y-118.37
X128.53Y-91.14
X129.06Y-92.21
X129.23Y-131.58
X129.23Y-132.4
X129.23Y-133.19
X129.3Y-127.86
X129.55Y-107.94
X129.66Y-83.49
X130.12Y-96.12
X131.13Y-109.72
X131.15Y-114.89
X131.15Y-115.66
X131.15Y-116.43
X131.18Y-103.14
X131.18Y-104.71
X131.19Y-103.93
X132.36Y-108.0
X133.24Y-72.74
X133.42Y-71.46
X134.33Y-78.75
X134.8Y-121.53
X134.99Y-87.94
X135.22Y-118.33
X135.25Y-92.42
X135.28Y-88.85
X135.66Y-72.53
X135.73Y-109.64
X135.83Y-97.95
X135.83Y-106.1
X137.03Y-72.8
X137.66Y-118.32
X137.68Y-115.97
X137.95Y-84.45
X138.13Y-90.33
X138.2Y-92.85
X138.24Y-106.1
X138.78Y-80.46
X139.26Y-88.81
X139.35Y-91.53
X139.35Y-104.55
X139.5Y-67.8
X139.61Y-80.795
X139.89Y-118.3
X140.63Y-90.38
X140.73Y-97.68
X141.07Y-92.85
X142.483Y-84.248
X142.84Y-109.91
X143.14Y-95.5
X143.14Y-97.68
X143.154Y-79.835
X143.175Y-84.65
X144.12Y-68.86
X144.15Y-77.0
X144.17Y-78.32
X144.21Y-79.64
X144.22Y-116.8
X144.23Y-103.02
X144.23Y-114.96
X144.25Y-115.89
X144.26Y-103.86
X144.26Y-104.71
X144.33Y-118.76
X144.4Y-68.05
X145.07Y-109.89
X145.24Y-119.36
X145.37Y-97.66
X146.23Y-128.69
X147.21Y-115.53
X147.407Y-90.745
X147.5Y-89.95
X147.55Y-66.9
X147.57Y-123.61
X147.68Y-76.1
X147.68Y-83.23
X147.7Y-78.33
X148.39Y-132.1
X148.4Y-117.15
X148.4Y-118.96
X148.74Y-102.14
X148.74Y-105.96
X149.48Y-78.67
X149.58Y-71.81
X150.08Y-95.64
X150.15Y-83.31
X150.32Y-73.15
X150.45Y-77.49
X150.83Y-128.76
X151.15Y-99.96
X151.15Y-102.14
X151.15Y-105.96
X151.15Y-108.21
X151.32Y-71.89
X151.43Y-83.32
X151.69Y-68.52
X151.76Y-130.53
X151.78Y-133.7
X151.81Y-127.28
X151.87Y-79.7
X152.67Y-83.05
X152.83Y-66.93
X152.99Y-132.17
X153.175Y-82.3
X153.34Y-71.89
X153.38Y-102.12
X153.38Y-105.94
X153.87Y-116.5
X153.9Y-81.65
X153.922Y-115.702
X153.95Y-82.5
X153.95Y-118.74
X154.05Y-79.5
X155.21Y-81.651
X155.25Y-82.45
X155.42Y-128.67
X156.03Y-76.9
X156.08Y-82.26
X156.18Y-74.99
X156.22Y-72.8
X156.22Y-79.7
X156.22Y-128.6
X156.41Y-122.44
X157.47Y-66.91
X157.8Y-106.66
X158.56Y-68.48
X158.97Y-74.95
X159.01Y-82.5
X159.4Y-69.79
X159.74Y-108.32
X159.74Y-109.09
X159.74Y-109.85
X160.23Y-104.94
X160.91Y-90.82
X161.1Y-68.48
X161.51Y-72.95
X161.51Y-76.77
X161.53Y-79.96
X161.54Y-95.64
X161.81Y-78.32
X161.88Y-70.64
X162.49Y-108.7
X162.49Y-115.45
X162.8Y-94.21
X162.814Y-116.186
X164.5Y-102.7
X164.72Y-70.51
X164.8Y-69.45
X164.85Y-104.45
X164.85Y-124.45
X164.9Y-103.45
X165.4Y-67.3
X165.45Y-68.2
X165.45Y-78.94
X165.78Y-104.0
X166.19Y-78.36
X166.202Y-112.558
X166.39Y-111.78
X166.65Y-115.43
X166.66Y-116.38
X167.16Y-84.57
X167.35Y-121.39
X167.81Y-85.3
X167.962Y-113.056
X168.32Y-112.34
X168.61Y-123.73
X168.7Y-73.89
X169.29Y-85.08
X169.333Y-74.63
X169.81Y-81.2
X169.85Y-85.7
X170.0Y-115.0
X170.566Y-115.566
X170.7Y-77.85
X170.9Y-81.2
X171.25Y-121.78
X171.44Y-92.5
X171.54Y-131.59
X171.7Y-77.85
X171.8Y-81.1
X171.853Y-114.529
X172.03Y-132.47
X172.08Y-121.22
X172.5Y-115.0
X172.567Y-92.768
X172.91Y-71.18
X172.915Y-96.302
X173.024Y-88.452
X173.65Y-88.95
X173.7Y-96.15
X173.83Y-125.51
X173.85Y-124.66
X174.65Y-87.4
X175.0Y-117.5
X175.275Y-87.93
X175.32Y-71.18
X175.331Y-118.228
X175.71Y-127.54
X176.05Y-66.86
X176.06Y-90.58
X176.07Y-74.47
X176.08Y-73.49
X176.35Y-78.05
X176.5Y-84.0
X176.745Y-90.166
X177.04Y-80.11
X177.14Y-125.31
X177.55Y-71.16
X177.88Y-76.08
X178.04Y-127.56
X178.15Y-69.0
X178.38Y-66.88
X178.41Y-133.63
X179.266Y-97.182
X179.49Y-76.07
X179.52Y-94.36
X179.725Y-108.775
X179.88Y-71.18
X179.9Y-128.5
X180.0Y-95.0
X180.0Y-97.5
X180.15Y-126.08
X180.17Y-125.23
X180.2Y-120.82
X180.23Y-119.85
X180.35Y-108.15
X180.68Y-69.1
X181.06Y-74.39
X181.07Y-73.5
X181.34Y-77.99
X181.68Y-80.09
X185.33Y-127.14
X186.2Y-117.15
X186.21Y-107.29
X186.22Y-119.38
X186.23Y-75.82
X186.23Y-109.52
X186.25Y-78.05
X186.26Y-87.81
X186.26Y-97.53
X186.28Y-90.04
X186.28Y-99.76
T4
X117.7Y-122.871
X117.7Y-127.572
X117.7Y-132.271
T5
X113.66Y-74.35
X113.66Y-76.89
X113.66Y-79.43
X113.66Y-81.97
X113.66Y-84.51
X113.66Y-87.05
X113.66Y-89.59
X113.66Y-92.13
X113.66Y-94.67
X114.16Y-101.82
X114.16Y-106.41
X114.16Y-111.0
X114.16Y-115.59
X116.7Y-101.82
X116.7Y-106.41
X116.7Y-111.0
X116.7Y-115.59
X116.8Y-68.0
X119.24Y-101.82
X119.24Y-106.41
X119.24Y-111.0
X119.24Y-115.59
X119.34Y-68.0
X121.88Y-68.0
X124.42Y-68.0
X126.96Y-68.0
X129.5Y-68.0
X132.04Y-68.0
X134.58Y-68.0
X137.12Y-68.0
X168.09Y-87.87
X168.09Y-90.41
X168.09Y-92.95
X168.09Y-95.49
X168.09Y-98.03
X168.09Y-100.57
X168.09Y-103.11
X168.09Y-105.65
X183.1Y-84.7
X183.1Y-87.24
X183.1Y-89.78
X183.1Y-92.32
X183.1Y-94.86
X183.1Y-97.4
X183.1Y-99.94
X183.1Y-102.48
X183.1Y-105.02
X183.1Y-107.56
X183.1Y-110.1
X183.1Y-112.64
X183.1Y-115.18
X183.1Y-117.72
X183.1Y-120.26
X183.1Y-122.8
T6
X111.2Y-68.5
X111.2Y-132.5
X184.7Y-68.5
X184.7Y-132.5
T3
X133.38Y-129.95G85X133.38Y-130.45
G05
X133.38Y-133.75G85X133.38Y-134.25
G05
X142.02Y-129.95G85X142.02Y-130.45
G05
X142.02Y-133.75G85X142.02Y-134.25
G05
X161.38Y-128.97G85X161.38Y-129.97
G05
X161.38Y-133.4G85X161.38Y-133.9
G05
X170.02Y-128.97G85X170.02Y-129.97
G05
X170.02Y-133.4G85X170.02Y-133.9
G05
M30
