G04 #@! TF.GenerationSoftware,KiCad,Pcbnew,9.0.7*
G04 #@! TF.CreationDate,2026-03-27T23:32:11-03:00*
G04 #@! TF.ProjectId,ScramblerBot,53637261-6d62-46c6-9572-426f742e6b69,rev?*
G04 #@! TF.SameCoordinates,Original*
G04 #@! TF.FileFunction,Soldermask,Top*
G04 #@! TF.FilePolarity,Negative*
%FSLAX46Y46*%
G04 Gerber Fmt 4.6, Leading zero omitted, Abs format (unit mm)*
G04 Created by KiCad (PCBNEW 9.0.7) date 2026-03-27 23:32:11*
%MOMM*%
%LPD*%
G01*
G04 APERTURE LIST*
G04 Aperture macros list*
%AMRoundRect*
0 Rectangle with rounded corners*
0 $1 Rounding radius*
0 $2 $3 $4 $5 $6 $7 $8 $9 X,Y pos of 4 corners*
0 Add a 4 corners polygon primitive as box body*
4,1,4,$2,$3,$4,$5,$6,$7,$8,$9,$2,$3,0*
0 Add four circle primitives for the rounded corners*
1,1,$1+$1,$2,$3*
1,1,$1+$1,$4,$5*
1,1,$1+$1,$6,$7*
1,1,$1+$1,$8,$9*
0 Add four rect primitives between the rounded corners*
20,1,$1+$1,$2,$3,$4,$5,0*
20,1,$1+$1,$4,$5,$6,$7,0*
20,1,$1+$1,$6,$7,$8,$9,0*
20,1,$1+$1,$8,$9,$2,$3,0*%
G04 Aperture macros list end*
%ADD10RoundRect,0.250000X-1.050000X-0.550000X1.050000X-0.550000X1.050000X0.550000X-1.050000X0.550000X0*%
%ADD11RoundRect,0.150000X-0.587500X-0.150000X0.587500X-0.150000X0.587500X0.150000X-0.587500X0.150000X0*%
%ADD12RoundRect,0.250000X0.350000X0.450000X-0.350000X0.450000X-0.350000X-0.450000X0.350000X-0.450000X0*%
%ADD13R,1.700000X1.700000*%
%ADD14C,1.700000*%
%ADD15RoundRect,0.250000X-0.350000X-0.450000X0.350000X-0.450000X0.350000X0.450000X-0.350000X0.450000X0*%
%ADD16RoundRect,0.150000X-0.150000X0.512500X-0.150000X-0.512500X0.150000X-0.512500X0.150000X0.512500X0*%
%ADD17RoundRect,0.250000X0.325000X0.450000X-0.325000X0.450000X-0.325000X-0.450000X0.325000X-0.450000X0*%
%ADD18RoundRect,0.250000X-0.800000X-0.450000X0.800000X-0.450000X0.800000X0.450000X-0.800000X0.450000X0*%
%ADD19RoundRect,0.250000X-1.750000X-1.000000X1.750000X-1.000000X1.750000X1.000000X-1.750000X1.000000X0*%
%ADD20RoundRect,0.250000X-0.337500X-0.475000X0.337500X-0.475000X0.337500X0.475000X-0.337500X0.475000X0*%
%ADD21RoundRect,0.175000X-0.175000X-0.425000X0.175000X-0.425000X0.175000X0.425000X-0.175000X0.425000X0*%
%ADD22RoundRect,0.190000X0.190000X0.410000X-0.190000X0.410000X-0.190000X-0.410000X0.190000X-0.410000X0*%
%ADD23RoundRect,0.200000X0.200000X0.400000X-0.200000X0.400000X-0.200000X-0.400000X0.200000X-0.400000X0*%
%ADD24RoundRect,0.175000X0.175000X0.425000X-0.175000X0.425000X-0.175000X-0.425000X0.175000X-0.425000X0*%
%ADD25RoundRect,0.190000X-0.190000X-0.410000X0.190000X-0.410000X0.190000X0.410000X-0.190000X0.410000X0*%
%ADD26RoundRect,0.200000X-0.200000X-0.400000X0.200000X-0.400000X0.200000X0.400000X-0.200000X0.400000X0*%
%ADD27O,1.200000X1.700000*%
%ADD28RoundRect,0.250000X0.337500X0.475000X-0.337500X0.475000X-0.337500X-0.475000X0.337500X-0.475000X0*%
%ADD29RoundRect,0.200000X0.900000X0.200000X-0.900000X0.200000X-0.900000X-0.200000X0.900000X-0.200000X0*%
%ADD30RoundRect,0.249997X2.950003X2.650003X-2.950003X2.650003X-2.950003X-2.650003X2.950003X-2.650003X0*%
%ADD31C,0.650000*%
%ADD32R,0.600000X1.450000*%
%ADD33R,0.300000X1.450000*%
%ADD34O,1.200000X2.300000*%
%ADD35RoundRect,0.250000X-0.325000X-0.450000X0.325000X-0.450000X0.325000X0.450000X-0.325000X0.450000X0*%
%ADD36RoundRect,0.100000X-0.100000X0.637500X-0.100000X-0.637500X0.100000X-0.637500X0.100000X0.637500X0*%
%ADD37R,1.270000X1.270000*%
%ADD38C,1.270000*%
%ADD39RoundRect,0.150000X-0.150000X0.587500X-0.150000X-0.587500X0.150000X-0.587500X0.150000X0.587500X0*%
%ADD40RoundRect,0.250000X-1.950000X-1.000000X1.950000X-1.000000X1.950000X1.000000X-1.950000X1.000000X0*%
%ADD41RoundRect,0.250000X-1.500000X-0.550000X1.500000X-0.550000X1.500000X0.550000X-1.500000X0.550000X0*%
%ADD42RoundRect,0.150000X0.150000X-0.875000X0.150000X0.875000X-0.150000X0.875000X-0.150000X-0.875000X0*%
%ADD43R,1.500000X0.900000*%
%ADD44R,0.900000X1.500000*%
%ADD45C,0.600000*%
%ADD46R,3.900000X3.900000*%
%ADD47RoundRect,0.250000X-0.400000X-0.400000X0.400000X-0.400000X0.400000X0.400000X-0.400000X0.400000X0*%
%ADD48RoundRect,0.250000X-0.750000X-0.400000X0.750000X-0.400000X0.750000X0.400000X-0.750000X0.400000X0*%
%ADD49RoundRect,0.225000X-0.225000X-0.375000X0.225000X-0.375000X0.225000X0.375000X-0.225000X0.375000X0*%
G04 APERTURE END LIST*
D10*
X159200000Y-92500000D03*
X162800000Y-92500000D03*
D11*
X171762500Y-85050000D03*
X171762500Y-86950000D03*
X173637500Y-86000000D03*
D12*
X150700000Y-90000000D03*
X148700000Y-90000000D03*
D13*
X168090000Y-87870000D03*
D14*
X168090000Y-90410000D03*
X168090000Y-92950000D03*
X168090000Y-95490000D03*
X168090000Y-98030000D03*
X168090000Y-100570000D03*
X168090000Y-103110000D03*
X168090000Y-105650000D03*
D15*
X120700000Y-91000000D03*
X122700000Y-91000000D03*
D16*
X166312500Y-123312500D03*
X165362500Y-123312500D03*
X164412500Y-123312500D03*
X164412500Y-125587500D03*
X165362500Y-125587500D03*
X166312500Y-125587500D03*
D15*
X154200000Y-134000000D03*
X156200000Y-134000000D03*
D13*
X119240000Y-115590000D03*
D14*
X116700000Y-115590000D03*
X114160000Y-115590000D03*
D17*
X176225000Y-69000000D03*
X174175000Y-69000000D03*
D18*
X122450000Y-74250000D03*
X131550000Y-74250000D03*
X122450000Y-78750000D03*
X131550000Y-78750000D03*
D17*
X131725000Y-121500000D03*
X129675000Y-121500000D03*
D18*
X174150000Y-73500000D03*
X183250000Y-73500000D03*
X174150000Y-78000000D03*
X183250000Y-78000000D03*
D13*
X119240000Y-111000000D03*
D14*
X116700000Y-111000000D03*
X114160000Y-111000000D03*
D19*
X125110000Y-112910000D03*
X131210000Y-112910000D03*
D11*
X177062500Y-122050000D03*
X177062500Y-123950000D03*
X178937500Y-123000000D03*
D20*
X135952500Y-86050000D03*
X138027500Y-86050000D03*
D15*
X168700000Y-72500000D03*
X170700000Y-72500000D03*
D21*
X137200000Y-130120000D03*
D22*
X139220000Y-130120000D03*
D23*
X140450000Y-130120000D03*
D24*
X138200000Y-130120000D03*
D25*
X136180000Y-130120000D03*
D26*
X134950000Y-130120000D03*
D27*
X133380000Y-130200000D03*
X133380000Y-134000000D03*
X142020000Y-130200000D03*
X142020000Y-134000000D03*
D28*
X163607500Y-97220000D03*
X161532500Y-97220000D03*
X142037500Y-86000000D03*
X139962500Y-86000000D03*
D20*
X148662500Y-93500000D03*
X150737500Y-93500000D03*
D12*
X156200000Y-127000000D03*
X154200000Y-127000000D03*
D13*
X119240000Y-101820000D03*
D14*
X116700000Y-101820000D03*
X114160000Y-101820000D03*
D29*
X145700000Y-93280000D03*
X145700000Y-92140000D03*
X145700000Y-91000000D03*
D30*
X139400000Y-91000000D03*
D29*
X145700000Y-89860000D03*
X145700000Y-88720000D03*
D15*
X168700000Y-83000000D03*
X170700000Y-83000000D03*
D19*
X125060000Y-100910000D03*
X131160000Y-100910000D03*
D20*
X132462500Y-94000000D03*
X134537500Y-94000000D03*
D19*
X138110000Y-112910000D03*
X144210000Y-112910000D03*
D15*
X168700000Y-79500000D03*
X170700000Y-79500000D03*
D31*
X162810000Y-130000000D03*
X168590000Y-130000000D03*
D32*
X162450000Y-128555000D03*
X163250000Y-128555000D03*
D33*
X164450000Y-128555000D03*
X165450000Y-128555000D03*
X165950000Y-128555000D03*
X166950000Y-128555000D03*
D32*
X168150000Y-128555000D03*
X168950000Y-128555000D03*
X168950000Y-128555000D03*
X168150000Y-128555000D03*
D33*
X167450000Y-128555000D03*
X166450000Y-128555000D03*
X164950000Y-128555000D03*
X163950000Y-128555000D03*
D32*
X163250000Y-128555000D03*
X162450000Y-128555000D03*
D34*
X161380000Y-129470000D03*
D27*
X161380000Y-133650000D03*
D34*
X170020000Y-129470000D03*
D27*
X170020000Y-133650000D03*
D15*
X171700000Y-94500000D03*
X173700000Y-94500000D03*
D35*
X137675000Y-121500000D03*
X139725000Y-121500000D03*
D15*
X124700000Y-121500000D03*
X126700000Y-121500000D03*
D36*
X133650000Y-85137500D03*
X133000000Y-85137500D03*
X132350000Y-85137500D03*
X131700000Y-85137500D03*
X131050000Y-85137500D03*
X130400000Y-85137500D03*
X129750000Y-85137500D03*
X129750000Y-90862500D03*
X130400000Y-90862500D03*
X131050000Y-90862500D03*
X131700000Y-90862500D03*
X132350000Y-90862500D03*
X133000000Y-90862500D03*
X133650000Y-90862500D03*
D15*
X171700000Y-91000000D03*
X173700000Y-91000000D03*
D37*
X117700000Y-122871499D03*
D38*
X117700000Y-127571500D03*
X117700000Y-132271499D03*
D39*
X152650000Y-123562500D03*
X150750000Y-123562500D03*
X151700000Y-125437500D03*
D12*
X136500000Y-74500000D03*
X134500000Y-74500000D03*
D15*
X177500000Y-118500000D03*
X179500000Y-118500000D03*
D28*
X164537500Y-107000000D03*
X162462500Y-107000000D03*
D40*
X151300000Y-112000000D03*
X159700000Y-112000000D03*
D15*
X120700000Y-87500000D03*
X122700000Y-87500000D03*
X172500000Y-123000000D03*
X174500000Y-123000000D03*
D12*
X149200000Y-130500000D03*
X147200000Y-130500000D03*
D41*
X123830000Y-130390000D03*
X129230000Y-130390000D03*
D20*
X134495000Y-77080000D03*
X136570000Y-77080000D03*
D13*
X183100000Y-84700000D03*
D14*
X183100000Y-87240000D03*
X183100000Y-89780000D03*
X183100000Y-92320000D03*
X183100000Y-94860000D03*
X183100000Y-97400000D03*
X183100000Y-99940000D03*
X183100000Y-102480000D03*
X183100000Y-105020000D03*
X183100000Y-107560000D03*
X183100000Y-110100000D03*
X183100000Y-112640000D03*
X183100000Y-115180000D03*
X183100000Y-117720000D03*
X183100000Y-120260000D03*
X183100000Y-122800000D03*
D19*
X138110000Y-100910000D03*
X144210000Y-100910000D03*
D15*
X148670000Y-97500000D03*
X150670000Y-97500000D03*
D28*
X170737500Y-76000000D03*
X168662500Y-76000000D03*
D42*
X164755000Y-119150000D03*
X166025000Y-119150000D03*
X167295000Y-119150000D03*
X168565000Y-119150000D03*
X169835000Y-119150000D03*
X171105000Y-119150000D03*
X172375000Y-119150000D03*
X173645000Y-119150000D03*
X173645000Y-109850000D03*
X172375000Y-109850000D03*
X171105000Y-109850000D03*
X169835000Y-109850000D03*
X168565000Y-109850000D03*
X167295000Y-109850000D03*
X166025000Y-109850000D03*
X164755000Y-109850000D03*
D12*
X145200000Y-121500000D03*
X143200000Y-121500000D03*
D15*
X154200000Y-130500000D03*
X156200000Y-130500000D03*
D28*
X170735000Y-125380000D03*
X168660000Y-125380000D03*
D15*
X120700000Y-94500000D03*
X122700000Y-94500000D03*
D28*
X162037500Y-125000000D03*
X159962500Y-125000000D03*
D13*
X119240000Y-106410000D03*
D14*
X116700000Y-106410000D03*
X114160000Y-106410000D03*
D43*
X145850000Y-66880000D03*
X145850000Y-68150000D03*
X145850000Y-69420000D03*
X145850000Y-70690000D03*
X145850000Y-71960000D03*
X145850000Y-73230000D03*
X145850000Y-74500000D03*
X145850000Y-75770000D03*
X145850000Y-77040000D03*
X145850000Y-78310000D03*
X145850000Y-79580000D03*
X145850000Y-80850000D03*
X145850000Y-82120000D03*
X145850000Y-83390000D03*
D44*
X147615000Y-84640000D03*
X148885000Y-84640000D03*
X150155000Y-84640000D03*
X151425000Y-84640000D03*
X152695000Y-84640000D03*
X153965000Y-84640000D03*
X155235000Y-84640000D03*
X156505000Y-84640000D03*
X157775000Y-84640000D03*
X159045000Y-84640000D03*
X160315000Y-84640000D03*
X161585000Y-84640000D03*
D43*
X163350000Y-83390000D03*
X163350000Y-82120000D03*
X163350000Y-80850000D03*
X163350000Y-79580000D03*
X163350000Y-78310000D03*
X163350000Y-77040000D03*
X163350000Y-75770000D03*
X163350000Y-74500000D03*
X163350000Y-73230000D03*
X163350000Y-71960000D03*
X163350000Y-70690000D03*
X163350000Y-69420000D03*
X163350000Y-68150000D03*
X163350000Y-66880000D03*
D45*
X151700000Y-73900000D03*
X151700000Y-75300000D03*
X152400000Y-73200000D03*
X152400000Y-74600000D03*
X152400000Y-76000000D03*
X153100000Y-73900000D03*
D46*
X153100000Y-74600000D03*
D45*
X153100000Y-75300000D03*
X153800000Y-73200000D03*
X153800000Y-74600000D03*
X153800000Y-76000000D03*
X154500000Y-73900000D03*
X154500000Y-75300000D03*
D15*
X120700000Y-84000000D03*
X122700000Y-84000000D03*
D13*
X116800000Y-68000000D03*
D14*
X119340000Y-68000000D03*
X121880000Y-68000000D03*
X124420000Y-68000000D03*
X126960000Y-68000000D03*
X129500000Y-68000000D03*
X132040000Y-68000000D03*
X134580000Y-68000000D03*
X137120000Y-68000000D03*
D20*
X161572500Y-100420000D03*
X163647500Y-100420000D03*
D11*
X176200000Y-91600000D03*
X176200000Y-93500000D03*
X178075000Y-92550000D03*
D13*
X113660000Y-94670000D03*
D14*
X113660000Y-92130000D03*
X113660000Y-89590000D03*
X113660000Y-87050000D03*
X113660000Y-84510000D03*
X113660000Y-81970000D03*
X113660000Y-79430000D03*
X113660000Y-76890000D03*
X113660000Y-74350000D03*
D15*
X147200000Y-127000000D03*
X149200000Y-127000000D03*
D28*
X143037500Y-67500000D03*
X140962500Y-67500000D03*
D47*
X178850000Y-82250000D03*
D48*
X177700000Y-87750000D03*
D47*
X176550000Y-82250000D03*
D12*
X149200000Y-134000000D03*
X147200000Y-134000000D03*
D49*
X149900000Y-121000000D03*
X153200000Y-121000000D03*
D41*
X174500000Y-130500000D03*
X179900000Y-130500000D03*
D15*
X168700000Y-69000000D03*
X170700000Y-69000000D03*
D28*
X135237500Y-127500000D03*
X133162500Y-127500000D03*
M02*
