G04 #@! TF.GenerationSoftware,KiCad,Pcbnew,9.0.7*
G04 #@! TF.CreationDate,2026-03-27T23:32:11-03:00*
G04 #@! TF.ProjectId,ScramblerBot,53637261-6d62-46c6-9572-426f742e6b69,rev?*
G04 #@! TF.SameCoordinates,Original*
G04 #@! TF.FileFunction,Soldermask,Bot*
G04 #@! TF.FilePolarity,Negative*
%FSLAX46Y46*%
G04 Gerber Fmt 4.6, Leading zero omitted, Abs format (unit mm)*
G04 Created by KiCad (PCBNEW 9.0.7) date 2026-03-27 23:32:11*
%MOMM*%
%LPD*%
G01*
G04 APERTURE LIST*
%ADD10R,1.700000X1.700000*%
%ADD11C,1.700000*%
%ADD12O,1.200000X1.700000*%
%ADD13C,0.650000*%
%ADD14O,1.200000X2.300000*%
%ADD15R,1.270000X1.270000*%
%ADD16C,1.270000*%
G04 APERTURE END LIST*
D10*
X168090000Y-87870000D03*
D11*
X168090000Y-90410000D03*
X168090000Y-92950000D03*
X168090000Y-95490000D03*
X168090000Y-98030000D03*
X168090000Y-100570000D03*
X168090000Y-103110000D03*
X168090000Y-105650000D03*
D10*
X119240000Y-115590000D03*
D11*
X116700000Y-115590000D03*
X114160000Y-115590000D03*
D10*
X119240000Y-111000000D03*
D11*
X116700000Y-111000000D03*
X114160000Y-111000000D03*
D12*
X133380000Y-130200000D03*
X133380000Y-134000000D03*
X142020000Y-130200000D03*
X142020000Y-134000000D03*
D10*
X119240000Y-101820000D03*
D11*
X116700000Y-101820000D03*
X114160000Y-101820000D03*
D13*
X162810000Y-130000000D03*
X168590000Y-130000000D03*
D14*
X161380000Y-129470000D03*
D12*
X161380000Y-133650000D03*
D14*
X170020000Y-129470000D03*
D12*
X170020000Y-133650000D03*
D15*
X117700000Y-122871499D03*
D16*
X117700000Y-127571500D03*
X117700000Y-132271499D03*
D10*
X183100000Y-84700000D03*
D11*
X183100000Y-87240000D03*
X183100000Y-89780000D03*
X183100000Y-92320000D03*
X183100000Y-94860000D03*
X183100000Y-97400000D03*
X183100000Y-99940000D03*
X183100000Y-102480000D03*
X183100000Y-105020000D03*
X183100000Y-107560000D03*
X183100000Y-110100000D03*
X183100000Y-112640000D03*
X183100000Y-115180000D03*
X183100000Y-117720000D03*
X183100000Y-120260000D03*
X183100000Y-122800000D03*
D10*
X119240000Y-106410000D03*
D11*
X116700000Y-106410000D03*
X114160000Y-106410000D03*
D10*
X116800000Y-68000000D03*
D11*
X119340000Y-68000000D03*
X121880000Y-68000000D03*
X124420000Y-68000000D03*
X126960000Y-68000000D03*
X129500000Y-68000000D03*
X132040000Y-68000000D03*
X134580000Y-68000000D03*
X137120000Y-68000000D03*
D10*
X113660000Y-94670000D03*
D11*
X113660000Y-92130000D03*
X113660000Y-89590000D03*
X113660000Y-87050000D03*
X113660000Y-84510000D03*
X113660000Y-81970000D03*
X113660000Y-79430000D03*
X113660000Y-76890000D03*
X113660000Y-74350000D03*
M02*
