%TF.GenerationSoftware,KiCad,Pcbnew,9.0.7*%
%TF.CreationDate,2026-03-27T23:32:03-03:00*%
%TF.ProjectId,ScramblerBot,53637261-6d62-46c6-9572-426f742e6b69,rev?*%
%TF.SameCoordinates,Original*%
%TF.FileFunction,Drillmap*%
%TF.FilePolarity,Positive*%
%FSLAX45Y45*%
G04 Gerber Fmt 4.5, Leading zero omitted, Abs format (unit mm)*
G04 Created by KiCad (PCBNEW 9.0.7) date 2026-03-27 23:32:03*
%MOMM*%
%LPD*%
G01*
G04 APERTURE LIST*
%ADD10C,0.050000*%
%ADD11C,0.200000*%
%ADD12C,0.100000*%
G04 APERTURE END LIST*
D10*
X10820000Y-6550000D02*
X18770000Y-6550000D01*
X18770000Y-13550000D01*
X10820000Y-13550000D01*
X10820000Y-6550000D01*
D11*
D12*
X16248500Y-12967500D02*
X16313500Y-13032500D01*
X16313500Y-12967500D02*
X16248500Y-13032500D01*
X16826500Y-12967500D02*
X16891500Y-13032500D01*
X16891500Y-12967500D02*
X16826500Y-13032500D01*
D11*
X11078277Y-13863984D02*
X11078277Y-13663984D01*
X11078277Y-13663984D02*
X11125896Y-13663984D01*
X11125896Y-13663984D02*
X11154467Y-13673508D01*
X11154467Y-13673508D02*
X11173515Y-13692555D01*
X11173515Y-13692555D02*
X11183039Y-13711603D01*
X11183039Y-13711603D02*
X11192562Y-13749698D01*
X11192562Y-13749698D02*
X11192562Y-13778269D01*
X11192562Y-13778269D02*
X11183039Y-13816365D01*
X11183039Y-13816365D02*
X11173515Y-13835412D01*
X11173515Y-13835412D02*
X11154467Y-13854460D01*
X11154467Y-13854460D02*
X11125896Y-13863984D01*
X11125896Y-13863984D02*
X11078277Y-13863984D01*
X11278277Y-13863984D02*
X11278277Y-13730650D01*
X11278277Y-13768746D02*
X11287801Y-13749698D01*
X11287801Y-13749698D02*
X11297324Y-13740174D01*
X11297324Y-13740174D02*
X11316372Y-13730650D01*
X11316372Y-13730650D02*
X11335420Y-13730650D01*
X11402086Y-13863984D02*
X11402086Y-13730650D01*
X11402086Y-13663984D02*
X11392562Y-13673508D01*
X11392562Y-13673508D02*
X11402086Y-13683031D01*
X11402086Y-13683031D02*
X11411610Y-13673508D01*
X11411610Y-13673508D02*
X11402086Y-13663984D01*
X11402086Y-13663984D02*
X11402086Y-13683031D01*
X11525896Y-13863984D02*
X11506848Y-13854460D01*
X11506848Y-13854460D02*
X11497324Y-13835412D01*
X11497324Y-13835412D02*
X11497324Y-13663984D01*
X11630658Y-13863984D02*
X11611610Y-13854460D01*
X11611610Y-13854460D02*
X11602086Y-13835412D01*
X11602086Y-13835412D02*
X11602086Y-13663984D01*
X11859229Y-13863984D02*
X11859229Y-13663984D01*
X11859229Y-13663984D02*
X11925896Y-13806841D01*
X11925896Y-13806841D02*
X11992562Y-13663984D01*
X11992562Y-13663984D02*
X11992562Y-13863984D01*
X12173515Y-13863984D02*
X12173515Y-13759222D01*
X12173515Y-13759222D02*
X12163991Y-13740174D01*
X12163991Y-13740174D02*
X12144943Y-13730650D01*
X12144943Y-13730650D02*
X12106848Y-13730650D01*
X12106848Y-13730650D02*
X12087801Y-13740174D01*
X12173515Y-13854460D02*
X12154467Y-13863984D01*
X12154467Y-13863984D02*
X12106848Y-13863984D01*
X12106848Y-13863984D02*
X12087801Y-13854460D01*
X12087801Y-13854460D02*
X12078277Y-13835412D01*
X12078277Y-13835412D02*
X12078277Y-13816365D01*
X12078277Y-13816365D02*
X12087801Y-13797317D01*
X12087801Y-13797317D02*
X12106848Y-13787793D01*
X12106848Y-13787793D02*
X12154467Y-13787793D01*
X12154467Y-13787793D02*
X12173515Y-13778269D01*
X12268753Y-13730650D02*
X12268753Y-13930650D01*
X12268753Y-13740174D02*
X12287801Y-13730650D01*
X12287801Y-13730650D02*
X12325896Y-13730650D01*
X12325896Y-13730650D02*
X12344943Y-13740174D01*
X12344943Y-13740174D02*
X12354467Y-13749698D01*
X12354467Y-13749698D02*
X12363991Y-13768746D01*
X12363991Y-13768746D02*
X12363991Y-13825888D01*
X12363991Y-13825888D02*
X12354467Y-13844936D01*
X12354467Y-13844936D02*
X12344943Y-13854460D01*
X12344943Y-13854460D02*
X12325896Y-13863984D01*
X12325896Y-13863984D02*
X12287801Y-13863984D01*
X12287801Y-13863984D02*
X12268753Y-13854460D01*
X12449705Y-13844936D02*
X12459229Y-13854460D01*
X12459229Y-13854460D02*
X12449705Y-13863984D01*
X12449705Y-13863984D02*
X12440182Y-13854460D01*
X12440182Y-13854460D02*
X12449705Y-13844936D01*
X12449705Y-13844936D02*
X12449705Y-13863984D01*
X12449705Y-13740174D02*
X12459229Y-13749698D01*
X12459229Y-13749698D02*
X12449705Y-13759222D01*
X12449705Y-13759222D02*
X12440182Y-13749698D01*
X12440182Y-13749698D02*
X12449705Y-13740174D01*
X12449705Y-13740174D02*
X12449705Y-13759222D01*
D12*
X10752500Y-14160000D02*
X10817500Y-14225000D01*
X10817500Y-14160000D02*
X10752500Y-14225000D01*
D11*
X11116372Y-14083984D02*
X11135420Y-14083984D01*
X11135420Y-14083984D02*
X11154467Y-14093508D01*
X11154467Y-14093508D02*
X11163991Y-14103031D01*
X11163991Y-14103031D02*
X11173515Y-14122079D01*
X11173515Y-14122079D02*
X11183039Y-14160174D01*
X11183039Y-14160174D02*
X11183039Y-14207793D01*
X11183039Y-14207793D02*
X11173515Y-14245888D01*
X11173515Y-14245888D02*
X11163991Y-14264936D01*
X11163991Y-14264936D02*
X11154467Y-14274460D01*
X11154467Y-14274460D02*
X11135420Y-14283984D01*
X11135420Y-14283984D02*
X11116372Y-14283984D01*
X11116372Y-14283984D02*
X11097324Y-14274460D01*
X11097324Y-14274460D02*
X11087801Y-14264936D01*
X11087801Y-14264936D02*
X11078277Y-14245888D01*
X11078277Y-14245888D02*
X11068753Y-14207793D01*
X11068753Y-14207793D02*
X11068753Y-14160174D01*
X11068753Y-14160174D02*
X11078277Y-14122079D01*
X11078277Y-14122079D02*
X11087801Y-14103031D01*
X11087801Y-14103031D02*
X11097324Y-14093508D01*
X11097324Y-14093508D02*
X11116372Y-14083984D01*
X11268753Y-14264936D02*
X11278277Y-14274460D01*
X11278277Y-14274460D02*
X11268753Y-14283984D01*
X11268753Y-14283984D02*
X11259229Y-14274460D01*
X11259229Y-14274460D02*
X11268753Y-14264936D01*
X11268753Y-14264936D02*
X11268753Y-14283984D01*
X11449705Y-14083984D02*
X11411610Y-14083984D01*
X11411610Y-14083984D02*
X11392562Y-14093508D01*
X11392562Y-14093508D02*
X11383039Y-14103031D01*
X11383039Y-14103031D02*
X11363991Y-14131603D01*
X11363991Y-14131603D02*
X11354467Y-14169698D01*
X11354467Y-14169698D02*
X11354467Y-14245888D01*
X11354467Y-14245888D02*
X11363991Y-14264936D01*
X11363991Y-14264936D02*
X11373515Y-14274460D01*
X11373515Y-14274460D02*
X11392562Y-14283984D01*
X11392562Y-14283984D02*
X11430658Y-14283984D01*
X11430658Y-14283984D02*
X11449705Y-14274460D01*
X11449705Y-14274460D02*
X11459229Y-14264936D01*
X11459229Y-14264936D02*
X11468753Y-14245888D01*
X11468753Y-14245888D02*
X11468753Y-14198269D01*
X11468753Y-14198269D02*
X11459229Y-14179222D01*
X11459229Y-14179222D02*
X11449705Y-14169698D01*
X11449705Y-14169698D02*
X11430658Y-14160174D01*
X11430658Y-14160174D02*
X11392562Y-14160174D01*
X11392562Y-14160174D02*
X11373515Y-14169698D01*
X11373515Y-14169698D02*
X11363991Y-14179222D01*
X11363991Y-14179222D02*
X11354467Y-14198269D01*
X11649705Y-14083984D02*
X11554467Y-14083984D01*
X11554467Y-14083984D02*
X11544943Y-14179222D01*
X11544943Y-14179222D02*
X11554467Y-14169698D01*
X11554467Y-14169698D02*
X11573515Y-14160174D01*
X11573515Y-14160174D02*
X11621134Y-14160174D01*
X11621134Y-14160174D02*
X11640182Y-14169698D01*
X11640182Y-14169698D02*
X11649705Y-14179222D01*
X11649705Y-14179222D02*
X11659229Y-14198269D01*
X11659229Y-14198269D02*
X11659229Y-14245888D01*
X11659229Y-14245888D02*
X11649705Y-14264936D01*
X11649705Y-14264936D02*
X11640182Y-14274460D01*
X11640182Y-14274460D02*
X11621134Y-14283984D01*
X11621134Y-14283984D02*
X11573515Y-14283984D01*
X11573515Y-14283984D02*
X11554467Y-14274460D01*
X11554467Y-14274460D02*
X11544943Y-14264936D01*
X11783039Y-14083984D02*
X11802086Y-14083984D01*
X11802086Y-14083984D02*
X11821134Y-14093508D01*
X11821134Y-14093508D02*
X11830658Y-14103031D01*
X11830658Y-14103031D02*
X11840182Y-14122079D01*
X11840182Y-14122079D02*
X11849705Y-14160174D01*
X11849705Y-14160174D02*
X11849705Y-14207793D01*
X11849705Y-14207793D02*
X11840182Y-14245888D01*
X11840182Y-14245888D02*
X11830658Y-14264936D01*
X11830658Y-14264936D02*
X11821134Y-14274460D01*
X11821134Y-14274460D02*
X11802086Y-14283984D01*
X11802086Y-14283984D02*
X11783039Y-14283984D01*
X11783039Y-14283984D02*
X11763991Y-14274460D01*
X11763991Y-14274460D02*
X11754467Y-14264936D01*
X11754467Y-14264936D02*
X11744943Y-14245888D01*
X11744943Y-14245888D02*
X11735420Y-14207793D01*
X11735420Y-14207793D02*
X11735420Y-14160174D01*
X11735420Y-14160174D02*
X11744943Y-14122079D01*
X11744943Y-14122079D02*
X11754467Y-14103031D01*
X11754467Y-14103031D02*
X11763991Y-14093508D01*
X11763991Y-14093508D02*
X11783039Y-14083984D01*
X11935420Y-14283984D02*
X11935420Y-14150650D01*
X11935420Y-14169698D02*
X11944943Y-14160174D01*
X11944943Y-14160174D02*
X11963991Y-14150650D01*
X11963991Y-14150650D02*
X11992563Y-14150650D01*
X11992563Y-14150650D02*
X12011610Y-14160174D01*
X12011610Y-14160174D02*
X12021134Y-14179222D01*
X12021134Y-14179222D02*
X12021134Y-14283984D01*
X12021134Y-14179222D02*
X12030658Y-14160174D01*
X12030658Y-14160174D02*
X12049705Y-14150650D01*
X12049705Y-14150650D02*
X12078277Y-14150650D01*
X12078277Y-14150650D02*
X12097324Y-14160174D01*
X12097324Y-14160174D02*
X12106848Y-14179222D01*
X12106848Y-14179222D02*
X12106848Y-14283984D01*
X12202086Y-14283984D02*
X12202086Y-14150650D01*
X12202086Y-14169698D02*
X12211610Y-14160174D01*
X12211610Y-14160174D02*
X12230658Y-14150650D01*
X12230658Y-14150650D02*
X12259229Y-14150650D01*
X12259229Y-14150650D02*
X12278277Y-14160174D01*
X12278277Y-14160174D02*
X12287801Y-14179222D01*
X12287801Y-14179222D02*
X12287801Y-14283984D01*
X12287801Y-14179222D02*
X12297324Y-14160174D01*
X12297324Y-14160174D02*
X12316372Y-14150650D01*
X12316372Y-14150650D02*
X12344943Y-14150650D01*
X12344943Y-14150650D02*
X12363991Y-14160174D01*
X12363991Y-14160174D02*
X12373515Y-14179222D01*
X12373515Y-14179222D02*
X12373515Y-14283984D01*
X12763991Y-14074460D02*
X12592563Y-14331603D01*
X13021134Y-14083984D02*
X13040182Y-14083984D01*
X13040182Y-14083984D02*
X13059229Y-14093508D01*
X13059229Y-14093508D02*
X13068753Y-14103031D01*
X13068753Y-14103031D02*
X13078277Y-14122079D01*
X13078277Y-14122079D02*
X13087801Y-14160174D01*
X13087801Y-14160174D02*
X13087801Y-14207793D01*
X13087801Y-14207793D02*
X13078277Y-14245888D01*
X13078277Y-14245888D02*
X13068753Y-14264936D01*
X13068753Y-14264936D02*
X13059229Y-14274460D01*
X13059229Y-14274460D02*
X13040182Y-14283984D01*
X13040182Y-14283984D02*
X13021134Y-14283984D01*
X13021134Y-14283984D02*
X13002086Y-14274460D01*
X13002086Y-14274460D02*
X12992563Y-14264936D01*
X12992563Y-14264936D02*
X12983039Y-14245888D01*
X12983039Y-14245888D02*
X12973515Y-14207793D01*
X12973515Y-14207793D02*
X12973515Y-14160174D01*
X12973515Y-14160174D02*
X12983039Y-14122079D01*
X12983039Y-14122079D02*
X12992563Y-14103031D01*
X12992563Y-14103031D02*
X13002086Y-14093508D01*
X13002086Y-14093508D02*
X13021134Y-14083984D01*
X13173515Y-14264936D02*
X13183039Y-14274460D01*
X13183039Y-14274460D02*
X13173515Y-14283984D01*
X13173515Y-14283984D02*
X13163991Y-14274460D01*
X13163991Y-14274460D02*
X13173515Y-14264936D01*
X13173515Y-14264936D02*
X13173515Y-14283984D01*
X13306848Y-14083984D02*
X13325896Y-14083984D01*
X13325896Y-14083984D02*
X13344944Y-14093508D01*
X13344944Y-14093508D02*
X13354467Y-14103031D01*
X13354467Y-14103031D02*
X13363991Y-14122079D01*
X13363991Y-14122079D02*
X13373515Y-14160174D01*
X13373515Y-14160174D02*
X13373515Y-14207793D01*
X13373515Y-14207793D02*
X13363991Y-14245888D01*
X13363991Y-14245888D02*
X13354467Y-14264936D01*
X13354467Y-14264936D02*
X13344944Y-14274460D01*
X13344944Y-14274460D02*
X13325896Y-14283984D01*
X13325896Y-14283984D02*
X13306848Y-14283984D01*
X13306848Y-14283984D02*
X13287801Y-14274460D01*
X13287801Y-14274460D02*
X13278277Y-14264936D01*
X13278277Y-14264936D02*
X13268753Y-14245888D01*
X13268753Y-14245888D02*
X13259229Y-14207793D01*
X13259229Y-14207793D02*
X13259229Y-14160174D01*
X13259229Y-14160174D02*
X13268753Y-14122079D01*
X13268753Y-14122079D02*
X13278277Y-14103031D01*
X13278277Y-14103031D02*
X13287801Y-14093508D01*
X13287801Y-14093508D02*
X13306848Y-14083984D01*
X13449706Y-14103031D02*
X13459229Y-14093508D01*
X13459229Y-14093508D02*
X13478277Y-14083984D01*
X13478277Y-14083984D02*
X13525896Y-14083984D01*
X13525896Y-14083984D02*
X13544944Y-14093508D01*
X13544944Y-14093508D02*
X13554467Y-14103031D01*
X13554467Y-14103031D02*
X13563991Y-14122079D01*
X13563991Y-14122079D02*
X13563991Y-14141127D01*
X13563991Y-14141127D02*
X13554467Y-14169698D01*
X13554467Y-14169698D02*
X13440182Y-14283984D01*
X13440182Y-14283984D02*
X13563991Y-14283984D01*
X13744944Y-14083984D02*
X13649706Y-14083984D01*
X13649706Y-14083984D02*
X13640182Y-14179222D01*
X13640182Y-14179222D02*
X13649706Y-14169698D01*
X13649706Y-14169698D02*
X13668753Y-14160174D01*
X13668753Y-14160174D02*
X13716372Y-14160174D01*
X13716372Y-14160174D02*
X13735420Y-14169698D01*
X13735420Y-14169698D02*
X13744944Y-14179222D01*
X13744944Y-14179222D02*
X13754467Y-14198269D01*
X13754467Y-14198269D02*
X13754467Y-14245888D01*
X13754467Y-14245888D02*
X13744944Y-14264936D01*
X13744944Y-14264936D02*
X13735420Y-14274460D01*
X13735420Y-14274460D02*
X13716372Y-14283984D01*
X13716372Y-14283984D02*
X13668753Y-14283984D01*
X13668753Y-14283984D02*
X13649706Y-14274460D01*
X13649706Y-14274460D02*
X13640182Y-14264936D01*
X13925896Y-14083984D02*
X13887801Y-14083984D01*
X13887801Y-14083984D02*
X13868753Y-14093508D01*
X13868753Y-14093508D02*
X13859229Y-14103031D01*
X13859229Y-14103031D02*
X13840182Y-14131603D01*
X13840182Y-14131603D02*
X13830658Y-14169698D01*
X13830658Y-14169698D02*
X13830658Y-14245888D01*
X13830658Y-14245888D02*
X13840182Y-14264936D01*
X13840182Y-14264936D02*
X13849706Y-14274460D01*
X13849706Y-14274460D02*
X13868753Y-14283984D01*
X13868753Y-14283984D02*
X13906848Y-14283984D01*
X13906848Y-14283984D02*
X13925896Y-14274460D01*
X13925896Y-14274460D02*
X13935420Y-14264936D01*
X13935420Y-14264936D02*
X13944944Y-14245888D01*
X13944944Y-14245888D02*
X13944944Y-14198269D01*
X13944944Y-14198269D02*
X13935420Y-14179222D01*
X13935420Y-14179222D02*
X13925896Y-14169698D01*
X13925896Y-14169698D02*
X13906848Y-14160174D01*
X13906848Y-14160174D02*
X13868753Y-14160174D01*
X13868753Y-14160174D02*
X13849706Y-14169698D01*
X13849706Y-14169698D02*
X13840182Y-14179222D01*
X13840182Y-14179222D02*
X13830658Y-14198269D01*
X14021134Y-14083984D02*
X14021134Y-14122079D01*
X14097325Y-14083984D02*
X14097325Y-14122079D01*
X14392563Y-14360174D02*
X14383039Y-14350650D01*
X14383039Y-14350650D02*
X14363991Y-14322079D01*
X14363991Y-14322079D02*
X14354468Y-14303031D01*
X14354468Y-14303031D02*
X14344944Y-14274460D01*
X14344944Y-14274460D02*
X14335420Y-14226841D01*
X14335420Y-14226841D02*
X14335420Y-14188746D01*
X14335420Y-14188746D02*
X14344944Y-14141127D01*
X14344944Y-14141127D02*
X14354468Y-14112555D01*
X14354468Y-14112555D02*
X14363991Y-14093508D01*
X14363991Y-14093508D02*
X14383039Y-14064936D01*
X14383039Y-14064936D02*
X14392563Y-14055412D01*
X14459229Y-14103031D02*
X14468753Y-14093508D01*
X14468753Y-14093508D02*
X14487801Y-14083984D01*
X14487801Y-14083984D02*
X14535420Y-14083984D01*
X14535420Y-14083984D02*
X14554468Y-14093508D01*
X14554468Y-14093508D02*
X14563991Y-14103031D01*
X14563991Y-14103031D02*
X14573515Y-14122079D01*
X14573515Y-14122079D02*
X14573515Y-14141127D01*
X14573515Y-14141127D02*
X14563991Y-14169698D01*
X14563991Y-14169698D02*
X14449706Y-14283984D01*
X14449706Y-14283984D02*
X14573515Y-14283984D01*
X14811610Y-14283984D02*
X14811610Y-14083984D01*
X14897325Y-14283984D02*
X14897325Y-14179222D01*
X14897325Y-14179222D02*
X14887801Y-14160174D01*
X14887801Y-14160174D02*
X14868753Y-14150650D01*
X14868753Y-14150650D02*
X14840182Y-14150650D01*
X14840182Y-14150650D02*
X14821134Y-14160174D01*
X14821134Y-14160174D02*
X14811610Y-14169698D01*
X15021134Y-14283984D02*
X15002087Y-14274460D01*
X15002087Y-14274460D02*
X14992563Y-14264936D01*
X14992563Y-14264936D02*
X14983039Y-14245888D01*
X14983039Y-14245888D02*
X14983039Y-14188746D01*
X14983039Y-14188746D02*
X14992563Y-14169698D01*
X14992563Y-14169698D02*
X15002087Y-14160174D01*
X15002087Y-14160174D02*
X15021134Y-14150650D01*
X15021134Y-14150650D02*
X15049706Y-14150650D01*
X15049706Y-14150650D02*
X15068753Y-14160174D01*
X15068753Y-14160174D02*
X15078277Y-14169698D01*
X15078277Y-14169698D02*
X15087801Y-14188746D01*
X15087801Y-14188746D02*
X15087801Y-14245888D01*
X15087801Y-14245888D02*
X15078277Y-14264936D01*
X15078277Y-14264936D02*
X15068753Y-14274460D01*
X15068753Y-14274460D02*
X15049706Y-14283984D01*
X15049706Y-14283984D02*
X15021134Y-14283984D01*
X15202087Y-14283984D02*
X15183039Y-14274460D01*
X15183039Y-14274460D02*
X15173515Y-14255412D01*
X15173515Y-14255412D02*
X15173515Y-14083984D01*
X15354468Y-14274460D02*
X15335420Y-14283984D01*
X15335420Y-14283984D02*
X15297325Y-14283984D01*
X15297325Y-14283984D02*
X15278277Y-14274460D01*
X15278277Y-14274460D02*
X15268753Y-14255412D01*
X15268753Y-14255412D02*
X15268753Y-14179222D01*
X15268753Y-14179222D02*
X15278277Y-14160174D01*
X15278277Y-14160174D02*
X15297325Y-14150650D01*
X15297325Y-14150650D02*
X15335420Y-14150650D01*
X15335420Y-14150650D02*
X15354468Y-14160174D01*
X15354468Y-14160174D02*
X15363991Y-14179222D01*
X15363991Y-14179222D02*
X15363991Y-14198269D01*
X15363991Y-14198269D02*
X15268753Y-14217317D01*
X15440182Y-14274460D02*
X15459230Y-14283984D01*
X15459230Y-14283984D02*
X15497325Y-14283984D01*
X15497325Y-14283984D02*
X15516372Y-14274460D01*
X15516372Y-14274460D02*
X15525896Y-14255412D01*
X15525896Y-14255412D02*
X15525896Y-14245888D01*
X15525896Y-14245888D02*
X15516372Y-14226841D01*
X15516372Y-14226841D02*
X15497325Y-14217317D01*
X15497325Y-14217317D02*
X15468753Y-14217317D01*
X15468753Y-14217317D02*
X15449706Y-14207793D01*
X15449706Y-14207793D02*
X15440182Y-14188746D01*
X15440182Y-14188746D02*
X15440182Y-14179222D01*
X15440182Y-14179222D02*
X15449706Y-14160174D01*
X15449706Y-14160174D02*
X15468753Y-14150650D01*
X15468753Y-14150650D02*
X15497325Y-14150650D01*
X15497325Y-14150650D02*
X15516372Y-14160174D01*
X15592563Y-14360174D02*
X15602087Y-14350650D01*
X15602087Y-14350650D02*
X15621134Y-14322079D01*
X15621134Y-14322079D02*
X15630658Y-14303031D01*
X15630658Y-14303031D02*
X15640182Y-14274460D01*
X15640182Y-14274460D02*
X15649706Y-14226841D01*
X15649706Y-14226841D02*
X15649706Y-14188746D01*
X15649706Y-14188746D02*
X15640182Y-14141127D01*
X15640182Y-14141127D02*
X15630658Y-14112555D01*
X15630658Y-14112555D02*
X15621134Y-14093508D01*
X15621134Y-14093508D02*
X15602087Y-14064936D01*
X15602087Y-14064936D02*
X15592563Y-14055412D01*
X15954468Y-14360174D02*
X15944944Y-14350650D01*
X15944944Y-14350650D02*
X15925896Y-14322079D01*
X15925896Y-14322079D02*
X15916372Y-14303031D01*
X15916372Y-14303031D02*
X15906849Y-14274460D01*
X15906849Y-14274460D02*
X15897325Y-14226841D01*
X15897325Y-14226841D02*
X15897325Y-14188746D01*
X15897325Y-14188746D02*
X15906849Y-14141127D01*
X15906849Y-14141127D02*
X15916372Y-14112555D01*
X15916372Y-14112555D02*
X15925896Y-14093508D01*
X15925896Y-14093508D02*
X15944944Y-14064936D01*
X15944944Y-14064936D02*
X15954468Y-14055412D01*
X16030658Y-14150650D02*
X16030658Y-14283984D01*
X16030658Y-14169698D02*
X16040182Y-14160174D01*
X16040182Y-14160174D02*
X16059230Y-14150650D01*
X16059230Y-14150650D02*
X16087801Y-14150650D01*
X16087801Y-14150650D02*
X16106849Y-14160174D01*
X16106849Y-14160174D02*
X16116372Y-14179222D01*
X16116372Y-14179222D02*
X16116372Y-14283984D01*
X16240182Y-14283984D02*
X16221134Y-14274460D01*
X16221134Y-14274460D02*
X16211611Y-14264936D01*
X16211611Y-14264936D02*
X16202087Y-14245888D01*
X16202087Y-14245888D02*
X16202087Y-14188746D01*
X16202087Y-14188746D02*
X16211611Y-14169698D01*
X16211611Y-14169698D02*
X16221134Y-14160174D01*
X16221134Y-14160174D02*
X16240182Y-14150650D01*
X16240182Y-14150650D02*
X16268753Y-14150650D01*
X16268753Y-14150650D02*
X16287801Y-14160174D01*
X16287801Y-14160174D02*
X16297325Y-14169698D01*
X16297325Y-14169698D02*
X16306849Y-14188746D01*
X16306849Y-14188746D02*
X16306849Y-14245888D01*
X16306849Y-14245888D02*
X16297325Y-14264936D01*
X16297325Y-14264936D02*
X16287801Y-14274460D01*
X16287801Y-14274460D02*
X16268753Y-14283984D01*
X16268753Y-14283984D02*
X16240182Y-14283984D01*
X16363992Y-14150650D02*
X16440182Y-14150650D01*
X16392563Y-14083984D02*
X16392563Y-14255412D01*
X16392563Y-14255412D02*
X16402087Y-14274460D01*
X16402087Y-14274460D02*
X16421134Y-14283984D01*
X16421134Y-14283984D02*
X16440182Y-14283984D01*
X16659230Y-14150650D02*
X16659230Y-14350650D01*
X16659230Y-14160174D02*
X16678277Y-14150650D01*
X16678277Y-14150650D02*
X16716373Y-14150650D01*
X16716373Y-14150650D02*
X16735420Y-14160174D01*
X16735420Y-14160174D02*
X16744944Y-14169698D01*
X16744944Y-14169698D02*
X16754468Y-14188746D01*
X16754468Y-14188746D02*
X16754468Y-14245888D01*
X16754468Y-14245888D02*
X16744944Y-14264936D01*
X16744944Y-14264936D02*
X16735420Y-14274460D01*
X16735420Y-14274460D02*
X16716373Y-14283984D01*
X16716373Y-14283984D02*
X16678277Y-14283984D01*
X16678277Y-14283984D02*
X16659230Y-14274460D01*
X16868754Y-14283984D02*
X16849706Y-14274460D01*
X16849706Y-14274460D02*
X16840182Y-14255412D01*
X16840182Y-14255412D02*
X16840182Y-14083984D01*
X17030658Y-14283984D02*
X17030658Y-14179222D01*
X17030658Y-14179222D02*
X17021135Y-14160174D01*
X17021135Y-14160174D02*
X17002087Y-14150650D01*
X17002087Y-14150650D02*
X16963992Y-14150650D01*
X16963992Y-14150650D02*
X16944944Y-14160174D01*
X17030658Y-14274460D02*
X17011611Y-14283984D01*
X17011611Y-14283984D02*
X16963992Y-14283984D01*
X16963992Y-14283984D02*
X16944944Y-14274460D01*
X16944944Y-14274460D02*
X16935420Y-14255412D01*
X16935420Y-14255412D02*
X16935420Y-14236365D01*
X16935420Y-14236365D02*
X16944944Y-14217317D01*
X16944944Y-14217317D02*
X16963992Y-14207793D01*
X16963992Y-14207793D02*
X17011611Y-14207793D01*
X17011611Y-14207793D02*
X17030658Y-14198269D01*
X17097325Y-14150650D02*
X17173515Y-14150650D01*
X17125896Y-14083984D02*
X17125896Y-14255412D01*
X17125896Y-14255412D02*
X17135420Y-14274460D01*
X17135420Y-14274460D02*
X17154468Y-14283984D01*
X17154468Y-14283984D02*
X17173515Y-14283984D01*
X17316373Y-14274460D02*
X17297325Y-14283984D01*
X17297325Y-14283984D02*
X17259230Y-14283984D01*
X17259230Y-14283984D02*
X17240182Y-14274460D01*
X17240182Y-14274460D02*
X17230658Y-14255412D01*
X17230658Y-14255412D02*
X17230658Y-14179222D01*
X17230658Y-14179222D02*
X17240182Y-14160174D01*
X17240182Y-14160174D02*
X17259230Y-14150650D01*
X17259230Y-14150650D02*
X17297325Y-14150650D01*
X17297325Y-14150650D02*
X17316373Y-14160174D01*
X17316373Y-14160174D02*
X17325896Y-14179222D01*
X17325896Y-14179222D02*
X17325896Y-14198269D01*
X17325896Y-14198269D02*
X17230658Y-14217317D01*
X17497325Y-14283984D02*
X17497325Y-14083984D01*
X17497325Y-14274460D02*
X17478277Y-14283984D01*
X17478277Y-14283984D02*
X17440182Y-14283984D01*
X17440182Y-14283984D02*
X17421135Y-14274460D01*
X17421135Y-14274460D02*
X17411611Y-14264936D01*
X17411611Y-14264936D02*
X17402087Y-14245888D01*
X17402087Y-14245888D02*
X17402087Y-14188746D01*
X17402087Y-14188746D02*
X17411611Y-14169698D01*
X17411611Y-14169698D02*
X17421135Y-14160174D01*
X17421135Y-14160174D02*
X17440182Y-14150650D01*
X17440182Y-14150650D02*
X17478277Y-14150650D01*
X17478277Y-14150650D02*
X17497325Y-14160174D01*
X17573516Y-14360174D02*
X17583039Y-14350650D01*
X17583039Y-14350650D02*
X17602087Y-14322079D01*
X17602087Y-14322079D02*
X17611611Y-14303031D01*
X17611611Y-14303031D02*
X17621135Y-14274460D01*
X17621135Y-14274460D02*
X17630658Y-14226841D01*
X17630658Y-14226841D02*
X17630658Y-14188746D01*
X17630658Y-14188746D02*
X17621135Y-14141127D01*
X17621135Y-14141127D02*
X17611611Y-14112555D01*
X17611611Y-14112555D02*
X17602087Y-14093508D01*
X17602087Y-14093508D02*
X17583039Y-14064936D01*
X17583039Y-14064936D02*
X17573516Y-14055412D01*
M02*
